<?xml version="1.0" encoding="utf-8"?>
<!-- Generator: Adobe Illustrator 24.1.2, SVG Export Plug-In . SVG Version: 6.00 Build 0)  -->
<svg version="1.1" id="Ebene_2_1_" xmlns="http://www.w3.org/2000/svg" xmlns:xlink="http://www.w3.org/1999/xlink" x="0px" y="0px"
	 viewBox="0 0 150.98 88.55" style="enable-background:new 0 0 150.98 88.55;" xml:space="preserve">
<style type="text/css">
	.st0{fill:#030203;}
	.st1{fill:#0066B1;}
</style>
<g>
	<g>
		<path class="st0" d="M13.62,12.9c3.01,0,4.88,0.33,6.38,1.39c1.72,1.21,2.75,3.3,2.75,5.43c0,1.72-0.44,2.9-1.21,4.22
			c-0.51,0.88-1.06,1.72-1.5,2.38c0.81,0.62,1.5,1.21,2.16,2.09c0.7,0.92,1.17,2.38,1.17,3.96c0,2.6-0.88,4.77-2.71,6.2
			c-1.72,1.36-4.07,1.98-8,1.98H0.53V12.9H13.62z M15.57,24.09c0.26-0.4,0.62-0.99,0.88-1.43c0.4-0.7,0.77-1.36,0.77-2.27
			c0-0.92-0.29-1.65-0.99-2.02c-0.62-0.33-1.61-0.4-3.23-0.4H6.03v6.12C6.03,24.09,15.57,24.09,15.57,24.09z M6.03,35.5h6.75
			c2.31,0,3.37-0.18,4.15-0.84c0.66-0.59,0.88-1.28,0.88-2.27c0-1.21-0.4-2.09-1.43-2.68c-0.81-0.44-1.87-0.55-3.74-0.55h-6.6v6.34
			H6.03z"/>
		<path class="st0" d="M27.56,12.9h7.08l6.79,15.51l6.78-15.51h6.97v27.65h-5.36V21.23l-6.05,13.83h-4.81l-6.04-13.83v19.33h-5.36
			V12.9z"/>
		<path class="st0" d="M63.91,12.9l4.03,20.43l4.55-16.25h5.57l4.48,16.25l4.11-20.43h5.54l-5.61,27.65h-6.97l-4.37-15.81
			l-4.36,15.81h-7.04L58.27,12.9C58.27,12.9,63.91,12.9,63.91,12.9z"/>
	</g>
	<g>
		<path class="st1" d="M119.37,9.94c0.03-0.28,0.14-0.68,0.14-0.68l0.4,0.02c0,0,0.29,0.6,0.32,0.81c0.02,0.12-0.07,0.44-0.13,0.66
			h-0.74C119.35,10.51,119.35,10.13,119.37,9.94 M120.55,9.52c-0.06-0.37,0.15-0.77,0.15-0.77s0.23,0.47,0.23,0.66
			s0.19,0.88,0.19,1.04c0,0.07,0,0.19,0,0.32h-0.62C120.58,10.14,120.6,9.87,120.55,9.52 M121.88,9.45c0.17,0,0.32,0.09,0.36,0.44
			c0.01,0.12,0.11,0.36,0.15,0.54c0.03,0.12,0.04,0.23,0.06,0.33h-0.95c0-0.34-0.01-0.84-0.03-1C121.44,9.5,121.7,9.45,121.88,9.45
			 M123.03,9.32h0.04c-0.02,0.15-0.04,0.31-0.04,0.48c0,0.37,0.06,0.7,0.16,0.96h-0.29c-0.11-0.33-0.27-0.93-0.27-1.08
			C122.63,9.5,123.03,9.32,123.03,9.32 M124.97,9.32c-0.03,0.17-0.04,0.34-0.04,0.53c0,0.35,0.05,0.66,0.14,0.91h-0.89
			c0.1-0.26,0.16-0.59,0.16-0.96c0-0.17-0.01-0.33-0.04-0.48L124.97,9.32z M126.87,9.31c-0.03,0.17-0.04,0.35-0.04,0.54
			c0,0.35,0.05,0.66,0.14,0.91h-0.88c0.09-0.25,0.14-0.57,0.14-0.91c0-0.19-0.02-0.37-0.04-0.53L126.87,9.31z M128.61,9.71
			l0.14,0.56v0.49h-0.45L128.61,9.71z M150.66,18.05h-1.79v-0.91h-1.2v-2.41h1.2v-1.96h-18.15v-2h-1.5
			c-0.04-0.21-0.11-0.52-0.12-0.64c-0.03-0.19,0.14-0.55,0.19-0.71c0.06-0.16,0.38-0.35,0.38-0.35s0.24,0.29,0.15,0.52
			c-0.09,0.23-0.34,0.41-0.34,0.41s0.12,0.3,0.29,0.3c0.09,0,0.4-0.39,0.5-0.73c0.09-0.3-0.02-0.47-0.23-0.71
			c0.17-0.35,0.17-0.55,0.08-0.79c-0.09-0.23-0.2-0.47-0.17-0.75s-0.02-0.5,0.06-0.42c0.2,0.21,0.75-0.09,0.58-0.42
			c-0.24-0.45-0.14-0.6-0.26-0.82c-0.14-0.26-0.35-0.54-0.78-0.21c-0.43,0.33-0.43,0.49-0.64,0.96c-0.2,0.47-0.14,0.61-0.4,0.8
			c-0.43-0.03-0.9-0.03-0.9-0.03s-0.35-0.25-0.45-0.33c-0.36-0.28-0.43-0.86-0.43-0.86s0.23-0.89,0.17-1.45
			c-0.04-0.43-0.05-0.6-0.21-0.81c-0.26-0.35-0.64,0.04-0.66,0.25c-0.03,0.21,0-0.04-0.09,0.1c-0.09,0.14-0.39,0.44-0.39,0.44
			l-0.08-0.37c0,0,0.47-0.14,0.13-0.5c-0.23-0.23-0.68-0.09-0.76,0.01c-0.19,0.25-0.11,0.25,0.08,0.44
			c0.06,0.18-0.04,0.42-0.04,0.42l-0.47-0.38V4.08c0.12-0.04,0.41-0.15,0.15-0.22c-0.06-0.02-0.11-0.03-0.17-0.03l-0.03-0.55
			c0.39-0.07,0.69-0.35,0.69-0.69c0-0.3-0.23-0.55-0.55-0.65c0.01-0.02,0.01-0.04,0-0.06c-0.06-0.14-0.41-0.28-0.41-0.33
			c0-0.04,0.43,0.09,0.61-0.07c0.18-0.16,0.52-1.31,0.52-1.31s-0.98,0.44-0.95,0.51s0.06,0.38-0.11,0.47s-0.06-0.54-0.17-0.56
			c-0.12-0.02-0.35,0.09-0.35,0.09l0.14,0.23c0,0-0.03,0.33-0.14,0.33c-0.06,0-0.29-0.52-0.29-0.52l-0.98-0.4
			c0,0,0.38,0.87,0.58,1.06c0.2,0.18,0.72,0.16,0.72,0.16l0.02,0.47c-0.22,0.13-0.37,0.34-0.37,0.58c0,0.36,0.33,0.65,0.76,0.69
			l0.08,0.52c-0.15,0.01-0.29,0.06-0.35,0.17c-0.12,0.21-0.25,0.47-0.16,0.8s0.39,1.07,0.36,1.26c-0.03,0.18-0.2,0.5-0.49,0.9
			c-0.29,0.4-0.5,0.31-0.5,0.5s0.12,0.14-0.23,0.07c-0.35-0.07-0.72-0.05-0.72-0.05s-0.23-0.4-0.17-0.68s0.11-0.33,0.06-0.58
			c-0.06-0.26-0.11-0.25-0.2-0.35c-0.11-0.12-0.35-0.28-0.66-0.05c-0.09,0.06-0.2,0.3-0.2,0.51c0,0.21,0.17,0.37,0.14,0.56
			c-0.03,0.19-0.06,0.3-0.11,0.45c-0.06,0.14-0.23,0.52-0.23,0.52s-0.17-0.3-0.49-0.38c-0.32-0.07-0.66,0.16-1.07-0.09
			c-0.41-0.26-0.29-0.57-0.46-0.94c-0.29-0.63-0.71-0.58-0.78-0.58c-0.26,0-0.51,0.25-0.52,0.47c-0.03,0.47-0.43,1.15,0.06,1.22
			c0.26,0.04,0.46-0.12,0.46-0.12s-0.07,0.38-0.14,0.51c-0.06,0.11-0.14,0.24-0.11,0.41c0.03,0.16,0.16,0.39,0.16,0.46
			s-0.59,0.27-0.57,0.61c0.02,0.31,0.25,0.93,0.4,0.98c0.14,0.04,0.34-0.19,0.34-0.19s-0.21-0.31-0.29-0.64
			c-0.09-0.33,0.34-0.47,0.34-0.47s0.13-0.02,0.45,0.03c0.32,0.05,0.6,0.09,0.6,0.09s0.03,1.01-0.03,1.17
			c-0.03,0.08-0.06,0.24-0.09,0.37h-2.29v2H98.51v1.96h1.2v2.41h-1.2v0.91h-1.78v1.95h1.78v1.09v2.23h1.17v19h5.22v-19h2.94v19h5.22
			v-19H116v19h5.22v-19h5.05v19h5.22v-19h2.94v19h5.22v-19h2.94v19h5.22v-19h1.12v-2.23v-1.09h1.79v-1.92H150.66z"/>
		<rect x="115.92" y="48.02" class="st1" width="31.83" height="1.94"/>
		<rect x="107.8" y="53.56" class="st1" width="39.96" height="2.77"/>
		<rect x="99.73" y="59.51" class="st1" width="48.03" height="4.44"/>
	</g>
	<g>
		<path class="st1" d="M8.97,45.76c1.97,0,3.2,0.22,4.19,0.91c1.13,0.79,1.81,2.17,1.81,3.56c0,1.13-0.29,1.9-0.79,2.77
			c-0.34,0.58-0.7,1.13-0.99,1.56c0.53,0.41,0.99,0.79,1.42,1.37c0.46,0.6,0.77,1.56,0.77,2.6c0,1.71-0.58,3.13-1.78,4.07
			c-1.13,0.89-2.67,1.3-5.25,1.3H0.38V45.76H8.97z M10.24,53.1c0.17-0.26,0.41-0.65,0.58-0.94c0.26-0.46,0.5-0.89,0.5-1.49
			s-0.19-1.08-0.65-1.32c-0.41-0.22-1.06-0.26-2.12-0.26H3.98v4.02L10.24,53.1L10.24,53.1z M3.98,60.59h4.43
			c1.52,0,2.21-0.12,2.72-0.55c0.43-0.39,0.58-0.84,0.58-1.49c0-0.79-0.26-1.37-0.94-1.76c-0.53-0.29-1.23-0.36-2.45-0.36H3.99v4.16
			H3.98z"/>
		<path class="st1" d="M19.01,45.76h12.85v3.39h-9.24v3.83h8.71v3.39h-8.71v4.14h9.65v3.39H19.01V45.76z"/>
		<path class="st1" d="M35.71,45.76h8.06c2.26,0,3.66,0.24,4.93,1.32c1.06,0.91,1.68,2.43,1.68,4.09c0,1.66-0.53,2.77-1.56,4
			c-0.55,0.65-1.35,1.49-1.78,1.93l4.24,6.81h-4.16l-3.85-6.23h-3.95v6.23h-3.61C35.71,63.91,35.71,45.76,35.71,45.76z M39.32,49.16
			v5.13H45c0.22-0.24,0.63-0.7,0.89-1.03c0.51-0.63,0.84-1.18,0.84-2.07c0-0.7-0.17-1.18-0.67-1.56c-0.46-0.34-1.2-0.46-2.72-0.46
			h-4.02V49.16z"/>
		<path class="st1" d="M54.1,63.91V45.76h3.61v14.66h8.93v3.49C66.64,63.91,54.1,63.91,54.1,63.91z"/>
		<path class="st1" d="M69.63,63.91V45.76h3.61v18.15H69.63z"/>
		<path class="st1" d="M77.59,45.76h3.9l7.24,12.13V45.76h3.56v18.15h-3.9l-7.24-12.13v12.13h-3.56V45.76z"/>
	</g>
	<g>
		<path class="st0" d="M0.37,70.07h4.64l4.45,10.18l4.45-10.18h4.57v18.15h-3.51V75.53L11,84.6H7.85l-3.97-9.07v12.68H0.37
			C0.37,88.21,0.37,70.07,0.37,70.07z"/>
		<path class="st0" d="M27.89,70.07h4.72l6.62,18.15h-3.92l-1.2-3.3h-7.79l-1.18,3.3h-3.85L27.89,70.07z M27.43,81.52h5.51
			l-2.77-7.82L27.43,81.52z"/>
		<path class="st0" d="M42.02,70.07h8.06c2.26,0,3.66,0.24,4.93,1.32c1.06,0.91,1.68,2.43,1.68,4.09c0,1.66-0.53,2.77-1.56,4
			c-0.55,0.65-1.35,1.49-1.78,1.93l4.24,6.81h-4.17l-3.85-6.23h-3.95v6.23h-3.6V70.07z M45.63,73.46v5.13h5.68
			c0.22-0.24,0.63-0.7,0.89-1.03c0.51-0.63,0.84-1.18,0.84-2.07c0-0.7-0.17-1.18-0.67-1.56c-0.46-0.34-1.2-0.46-2.72-0.46h-4.02
			V73.46z"/>
		<path class="st0" d="M65.44,70.07h4.72l6.62,18.15h-3.92l-1.2-3.3h-7.77l-1.18,3.3h-3.85L65.44,70.07z M64.98,81.52h5.51
			l-2.77-7.82L64.98,81.52z"/>
		<path class="st0" d="M75.91,73.51v-3.44H91.7v3.44h-6.09v14.7H82v-14.7H75.91z"/>
		<path class="st0" d="M94.68,88.21V70.07h3.61V77h7.27v-6.93h3.61v18.15h-3.61v-7.77h-7.27v7.77h-3.61V88.21z"/>
		<path class="st0" d="M113.05,79.19c0-2.55,0.31-4.81,1.32-6.45c1.2-1.95,2.82-3.08,6.69-3.08c3.35,0,5.03,0.91,6.35,2.74
			c1.25,1.71,1.66,4.14,1.66,6.79c0,3.06-0.6,5.27-1.68,6.74c-1.32,1.8-2.94,2.7-6.33,2.7c-3.83,0-5.34-1.01-6.55-2.79
			C113.53,84.36,113.05,82.2,113.05,79.19z M116.71,79.19c0,1.88,0.17,3.56,0.82,4.6c0.75,1.18,2,1.42,3.54,1.42
			c1.37,0,2.45-0.24,3.25-1.23c0.91-1.13,1.11-2.86,1.11-4.79c0-1.85-0.19-3.42-0.87-4.52c-0.75-1.23-1.95-1.59-3.49-1.59
			c-1.49,0-2.77,0.22-3.54,1.47C116.87,75.6,116.71,77.31,116.71,79.19z"/>
		<path class="st0" d="M132.95,70.07h3.9l7.24,12.13V70.07h3.56v18.15h-3.9l-7.24-12.13v12.13h-3.56V70.07z"/>
	</g>
</g>
</svg>
